<?xml version="1.0" encoding="UTF-8"?>
<svg width="1009px" height="1135px" viewBox="0 0 1009 1135" version="1.1" xmlns="http://www.w3.org/2000/svg" xmlns:xlink="http://www.w3.org/1999/xlink">
    <!-- Generator: Sketch 49.2 (51160) - http://www.bohemiancoding.com/sketch -->
    <title>logo_ironhack_blue</title>
    <desc>Created with Sketch.</desc>
    <defs>
        <polygon id="path-1" points="0.000355739331 2.10154008e-13 1008.91054 2.10154008e-13 1008.91054 1134.99926 0.000355739331 1134.99926"></polygon>
    </defs>
    <g id="Logos" stroke="none" stroke-width="1" fill="none" fill-rule="evenodd">
        <g id="Artboard" transform="translate(-4631.000000, -721.000000)">
            <g id="logo_ironhack_blue" transform="translate(4631.000000, 721.000000)">
                <g id="BG">
                    <mask id="mask-2" fill="white">
                        <use xlink:href="#path-1"></use>
                    </mask>
                    <g id="Clip-2"></g>
                    <path d="M472.728123,1126.50894 L34.834351,876.006679 C13.3690398,863.726866 0.000355739331,840.034204 0.000355739331,814.273031 L0.000355739331,320.72549 C0.000355739331,294.966166 13.3690398,271.271655 34.834351,258.993691 L472.728123,8.49142671 C492.517902,-2.83084528 516.391568,-2.83084528 536.181347,8.49142671 L974.076898,258.993691 C995.542209,271.271655 1008.91089,294.966166 1008.91089,320.72549 L1008.91089,814.273031 C1008.91089,840.034204 995.542209,863.726866 974.076898,876.006679 L536.181347,1126.50894 C516.391568,1137.82937 492.517902,1137.82937 472.728123,1126.50894" id="Fill-1" fill="#32C3FF" mask="url(#mask-2)"></path>
                </g>
                <g id="text" transform="translate(195.821383, 347.568425)" fill="#FFFFFF">
                    <path d="M340.941065,211.513905 C340.941065,211.513905 278.877003,211.513905 340.941065,211.513905 Z M125.144251,96.9583915 C125.144251,96.9583915 125.332793,96.984271 125.396826,96.984271 C125.307891,96.984271 125.206505,96.9583915 125.080218,96.9454518 L125.144251,96.9583915 Z M125.005512,96.9454518 L125.080218,96.9454518 C125.080218,96.9454518 124.929028,96.9454518 124.852545,96.9195723 C124.916578,96.9454518 124.929028,96.9454518 124.929028,96.9454518 L125.005512,96.9454518 Z M124.562617,96.8789046 L124.587519,96.8789046 L124.512813,96.8789046 L124.562617,96.8789046 Z M124.322493,96.8789046 L124.500363,96.8789046 L124.322493,96.8789046 Z M0.208597794,209.375151 L40.7842259,209.375151 L40.7842259,2.17480034 L0.208597794,2.17480034 L0.208597794,209.375151 Z M127.378294,97.2338231 C127.415646,97.2338231 127.415646,97.2597026 127.415646,97.2597026 L127.378294,97.2338231 Z M126.860693,97.1802157 C127.063464,97.1802157 127.276908,97.2338231 127.276908,97.2338231 C127.227105,97.2338231 127.063464,97.1802157 126.860693,97.1802157 Z M125.837942,97.0489697 C125.96423,97.0489697 126.028263,97.0766977 126.090517,97.0896375 C126.028263,97.0766977 125.926877,97.0489697 125.926877,97.0489697 L125.837942,97.0489697 Z M124.322493,96.8789046 L124.322493,34.6091814 C132.591654,33.5074551 141.922696,32.8641652 149.850347,32.8641652 C178.988956,32.8641652 188.899854,42.0347433 188.899854,64.9177482 C188.899854,91.3037254 174.102876,97.928872 149.005466,97.928872 C141.063586,97.928872 133.287124,97.8641733 125.396826,96.984271 L125.45908,97.0230902 C125.332793,96.984271 125.270538,96.9583915 125.144251,96.9583915 L125.005512,96.9454518 C125.005512,96.9454518 124.852545,96.9454518 124.777839,96.9195723 L124.852545,96.9195723 L124.740487,96.9195723 C124.740487,96.9195723 124.639101,96.9195723 124.587519,96.8789046 L124.639101,96.9195723 C124.639101,96.9195723 124.587519,96.9195723 124.562617,96.8789046 L124.44878,96.8789046 L124.322493,96.8789046 Z M83.9229558,5.69071239 L83.9229558,209.375151 L124.322493,209.375151 L124.322493,130.283766 C131.36791,130.731111 140.583338,131.202488 148.726211,131.202488 L189.657578,209.375151 L236.243422,209.375151 L190.69278,126.387056 C214.148453,119.013253 228.957881,101.773823 228.957881,65.1007531 C228.957881,9.09016679 192.926823,0.0489860097 148.827597,0.0489860097 C124.929028,0.0489860097 101.206551,2.46317168 83.9229558,5.69071239 Z M302.245519,105.788839 C302.245519,63.5128622 303.092179,34.6091814 340.941065,34.6091814 C378.638762,34.6091814 379.560127,63.5128622 379.560127,105.788839 C379.560127,148.024149 378.638762,176.822463 340.941065,176.822463 C303.092179,176.822463 302.245519,148.024149 302.245519,105.788839 Z M261.127389,105.788839 C261.127389,180.82454 278.877003,211.513905 340.941065,211.513905 C402.903742,211.513905 420.630232,180.82454 420.630232,105.788839 C420.630232,30.7254111 402.903742,0.0489860097 340.941065,0.0489860097 C278.877003,0.0489860097 261.127389,30.7254111 261.127389,105.788839 Z M458.541373,31.5517059 L458.541373,209.375151 L494.913941,209.375151 L494.913941,56.8359567 L558.203525,184.183326 C568.466605,204.796331 577.822549,211.513905 592.66933,211.513905 C608.184901,211.513905 617.060597,201.949589 617.060597,179.918758 L617.060597,2.17480034 L580.725382,2.17480034 L580.725382,154.111372 L517.385994,27.2483183 C507.37549,7.26566353 496.882958,0.0489860097 483.034026,0.0489860097 C467.746128,0.0489860097 458.541373,9.45617656 458.541373,31.5517059 Z" id="Fill-4"></path>
                    <path d="M120.57638,246.042305 L120.57638,333.049113 L15.8484996,333.049113 L15.8484996,246.042305 L0.208419925,246.042305 L0.208419925,438.790815 L15.8484996,438.790815 L15.8484996,347.094276 L120.57638,347.094276 L120.57638,438.790815 L136.180886,438.790815 L136.180886,246.042305 L120.57638,246.042305 Z M594.666629,246.042305 L508.869417,335.34869 L508.869417,246.042305 L493.26669,246.042305 L493.26669,438.790815 L508.869417,438.790815 L508.869417,344.11259 L596.299472,438.790815 L617.058641,438.790815 L524.623333,339.191792 L614.586252,246.042305 L594.666629,246.042305 Z M248.969819,265.753225 L285.765717,368.141686 L211.974707,368.141686 L248.969819,265.753225 Z M237.902769,255.037273 L170.342534,438.790815 L186.36859,438.790815 L206.992578,381.584227 L290.625116,381.584227 L311.261555,438.790815 L327.927942,438.790815 L261.173457,255.037273 C258.539207,247.78917 254.8911,244.038494 249.426944,244.038494 C244.035715,244.038494 240.609945,247.674561 237.902769,255.037273 Z M343.754785,342.417484 C343.754785,410.816947 358.135548,440.757655 417.645402,440.757655 C433.002668,440.757655 446.540329,439.034822 458.15166,436.683486 L456.703801,423.667957 C446.454951,425.131996 436.16697,426.621914 425.806062,426.621914 C367.285163,426.621914 359.631431,398.982631 359.631431,342.417484 C359.631431,285.966947 366.048969,258.185326 425.806062,258.185326 C435.820124,258.185326 447.109512,259.739944 456.643326,261.268681 L458.15166,247.840929 C446.540329,245.502533 432.61847,244.038494 417.645402,244.038494 C358.220925,244.038494 343.754785,273.888624 343.754785,342.417484 Z" id="Fill-6"></path>
                </g>
            </g>
        </g>
    </g>
</svg>